<svg xmlns="http://www.w3.org/2000/svg" width="110.202" height="110.202" viewBox="0 0 110.202 110.202">
  <g id="Group_120" data-name="Group 120" transform="translate(-1580.951 -2965)">
    <g id="Group_24" data-name="Group 24" transform="matrix(0.695, -0.719, 0.719, 0.695, 1580.996, 3021.063)">
      <g id="Path_12" data-name="Path 12" transform="translate(0 0)" fill="none">
        <path d="M38.969-.032a38.967,38.967,0,1,1-39,39A38.891,38.891,0,0,1,38.969-.032Z" stroke="white"/>
        <path d="M 39.00178909301758 1.968063354492188 L 38.9708137512207 1.96807861328125 C 33.97894287109375 1.97216796875 29.13657760620117 2.953323364257812 24.57822418212891 4.884300231933594 C 20.17416381835938 6.749908447265625 16.21767044067383 9.419219970703125 12.81862640380859 12.81806182861328 C 9.419601440429688 16.21689987182617 6.750152587890625 20.17315673828125 4.884437561035156 24.57693481445312 C 2.953369140625 29.13499450683594 1.97216796875 33.9770393371582 1.968070983886719 38.96858215332031 C 1.9639892578125 43.95738220214844 2.9361572265625 48.79514312744141 4.857589721679688 53.34751129150391 C 6.713798522949219 57.74539184570312 9.373626708984375 61.69516754150391 12.76316833496094 65.08713531494141 C 16.152587890625 68.47900390625 20.10041427612305 71.14170074462891 24.49696731567383 73.00126647949219 C 29.04769515991211 74.92604064941406 33.8843879699707 75.9019775390625 38.87270736694336 75.9019775390625 L 38.90370559692383 75.90196990966797 C 43.89557647705078 75.89788818359375 48.73794174194336 74.91672515869141 53.29629516601562 72.98574829101562 C 57.70035552978516 71.12013244628906 61.65684509277344 68.45083618164062 65.05588531494141 65.05199432373047 C 68.45491790771484 61.65316009521484 71.12436676025391 57.6968994140625 72.99007415771484 53.29312133789062 C 74.921142578125 48.73506164550781 75.90235137939453 43.89301681518555 75.90643310546875 38.90147399902344 C 75.91051483154297 33.91267395019531 74.93833923339844 29.07490921020508 73.01692199707031 24.52253341674805 C 71.16069793701172 20.12466430664062 68.50086975097656 16.17488861083984 65.11134338378906 12.78291320800781 C 61.72190856933594 9.39105224609375 57.77408599853516 6.728347778320312 53.37753295898438 4.868782043457031 C 48.82680130004883 2.944007873535156 43.99010848999023 1.968063354492188 39.00178909301758 1.968063354492188 M 39.00178527832031 -0.0319366455078125 C 60.50936508178711 -0.0319366455078125 77.92404937744141 17.39276123046875 77.90643310546875 38.90311050415039 C 77.88880920410156 60.42395782470703 60.42742156982422 77.88434600830078 38.90534210205078 77.90196990966797 C 17.38322448730469 77.91960144042969 -0.049560546875 60.4878044128418 -0.03192901611328125 38.96694564819336 C -0.01428985595703125 17.44609832763672 17.44709396362305 -0.01428985595703125 38.96917724609375 -0.03192138671875 C 38.97968673706055 -0.0319366455078125 38.99127960205078 -0.0319366455078125 39.00178527832031 -0.0319366455078125 Z" stroke="none" fill="white"/>
      </g>
    </g>
    <g id="Group_25" data-name="Group 25" transform="matrix(0.695, -0.719, 0.719, 0.695, 1615.238, 3026.871)">
      <line id="Line_9" data-name="Line 9" y1="0.031" x2="38.286" transform="translate(-0.009 10.448)" fill="none" stroke="white" stroke-linecap="round" stroke-width="2"/>
      <line id="Line_10" data-name="Line 10" x2="11.17" y2="10.47" transform="translate(27.108 -0.022)" fill="none" stroke="white" stroke-linecap="round" stroke-width="2"/>
      <line id="Line_11" data-name="Line 11" x1="11.187" y2="10.488" transform="translate(27.091 10.448)" fill="none" stroke="white" stroke-linecap="round" stroke-width="2"/>
    </g>
  </g>
</svg>
