<svg xmlns="http://www.w3.org/2000/svg" width="33.565" height="33.501" viewBox="0 0 33.565 33.501">
  <path id="Path_3382" data-name="Path 3382" d="M27.025,34.5A25.058,25.058,0,0,1,2,9.475,7.475,7.475,0,0,1,9.475,2a6.4,6.4,0,0,1,1.251.114,6.159,6.159,0,0,1,1.17.293,1.625,1.625,0,0,1,1.056,1.219l2.226,9.75a1.625,1.625,0,0,1-.423,1.5c-.211.227-.227.244-2.226,1.284A16.1,16.1,0,0,0,20.444,24.1c1.056-2.015,1.073-2.031,1.3-2.243a1.625,1.625,0,0,1,1.5-.423l9.75,2.226a1.625,1.625,0,0,1,1.17,1.056,7.052,7.052,0,0,1,.309,1.186,7.751,7.751,0,0,1,.1,1.235A7.475,7.475,0,0,1,27.025,34.5Z" transform="translate(-1.5 -1.5)" fill="none" stroke="#e67e22" stroke-width="1"/>
</svg>
