<svg xmlns="http://www.w3.org/2000/svg" width="29.871" height="29.831" viewBox="0 0 29.871 29.831">
  <g id="Group_381" data-name="Group 381" transform="translate(-13.7 -13)">
    <path id="Path_4046" data-name="Path 4046" d="M39.934,37.3a9.564,9.564,0,0,0-.529-2.6,9.389,9.389,0,0,1-.651-2.564,2.37,2.37,0,0,1,.448-1.506,1.582,1.582,0,0,1,1.14-.529,1.22,1.22,0,0,1,1.017.529,2.248,2.248,0,0,1,.448,1.465,7.57,7.57,0,0,1-.529,2.4,11.385,11.385,0,0,0-.651,2.849,9.026,9.026,0,0,0,1.913-1.628,8.411,8.411,0,0,1,1.953-1.872,2.494,2.494,0,0,1,1.262-.366,1.478,1.478,0,0,1,1.058.448,1.387,1.387,0,0,1,.448,1.017,1.638,1.638,0,0,1-.61,1.262,8.259,8.259,0,0,1-3.134,1.1,12.572,12.572,0,0,0-2.442.733,8.625,8.625,0,0,0,2.442.773,6.8,6.8,0,0,1,3.012,1.058,1.819,1.819,0,0,1,.733,1.384,1.3,1.3,0,0,1-.448.977,1.35,1.35,0,0,1-1.017.407,2.406,2.406,0,0,1-1.262-.407,8.8,8.8,0,0,1-1.872-1.791,10.284,10.284,0,0,0-1.953-1.75,8.877,8.877,0,0,0,.448,2.36,11.639,11.639,0,0,1,.692,3.093,2.02,2.02,0,0,1-.448,1.3,1.2,1.2,0,0,1-.977.529,1.734,1.734,0,0,1-1.262-.57,1.685,1.685,0,0,1-.407-1.262,7.25,7.25,0,0,1,.448-2.2c.285-.855.488-1.465.57-1.791a8.4,8.4,0,0,0,.2-1.424A10.088,10.088,0,0,0,37.98,40.4a10.535,10.535,0,0,1-2.116,1.994,1.933,1.933,0,0,1-1.017.285,1.5,1.5,0,0,1-1.1-.448,1.368,1.368,0,0,1-.448-.977,1.637,1.637,0,0,1,.407-1.017,2.413,2.413,0,0,1,1.18-.855,12.646,12.646,0,0,1,2.36-.61,12.734,12.734,0,0,0,2.32-.733,11.1,11.1,0,0,0-2.482-.814,10.377,10.377,0,0,1-2.889-.9,1.852,1.852,0,0,1-.855-1.546,1.205,1.205,0,0,1,.448-.936,1.387,1.387,0,0,1,1.017-.448,2.664,2.664,0,0,1,1.343.407,7.507,7.507,0,0,1,1.75,1.628A7.288,7.288,0,0,0,39.934,37.3Z" transform="translate(-11.623 -10.141)" fill="#e67e22"/>
    <path id="Path_4047" data-name="Path 4047" d="M35.676,42.831H21.6a7.92,7.92,0,0,1-7.9-7.9V20.854A7.851,7.851,0,0,1,21.6,13H35.676a7.92,7.92,0,0,1,7.9,7.9V34.976a7.786,7.786,0,0,1-2.32,5.575A7.917,7.917,0,0,1,35.676,42.831ZM21.6,15.523a5.35,5.35,0,0,0-5.331,5.331V34.935A5.323,5.323,0,0,0,21.6,40.267H35.676a5.35,5.35,0,0,0,5.331-5.331V20.854a5.35,5.35,0,0,0-5.331-5.331H21.6Z" transform="translate(0)" fill="#e67e22"/>
  </g>
</svg>
