<svg xmlns="http://www.w3.org/2000/svg" width="110.202" height="110.202" viewBox="0 0 110.202 110.202">
  <g id="Group_119" data-name="Group 119" transform="translate(-1678 -3112.438)">
    <g id="Group_118" data-name="Group 118" transform="matrix(0.695, -0.719, 0.719, 0.695, 1678.045, 3168.502)">
      <g id="Group_24" data-name="Group 24" transform="translate(0 0)">
        <g id="Path_12" data-name="Path 12" transform="translate(0 0)" fill="#e67e22">
          <path d="M 38.87271499633789 76.90198516845703 C 33.74983596801758 76.90198516845703 28.78208160400391 75.89945983886719 24.10742568969727 73.92227172851562 C 19.59156036376953 72.01223754882812 15.53680419921875 69.27749633789062 12.05580425262451 65.79399108886719 C 8.574692726135254 62.31038284301758 5.842893123626709 58.25360488891602 3.936293125152588 53.73637390136719 C 1.962537407875061 49.06001663208008 0.9638819098472595 44.09114074707031 0.9680818915367126 38.9677734375 C 0.9722818732261658 33.84173965454102 1.980148553848267 28.86871719360352 3.96367073059082 24.18684005737305 C 5.879793167114258 19.66407203674316 8.621137619018555 15.60115051269531 12.11154842376709 12.11093902587891 C 15.60195922851562 8.62071704864502 19.66512680053711 5.879528045654297 24.18817138671875 3.9635169506073 C 28.87032699584961 1.980094790458679 33.84365844726562 0.972283661365509 38.97000503540039 0.9680836200714111 L 39.00180435180664 0.9680725336074829 C 44.12468338012695 0.9680725336074829 49.09243774414062 1.970594763755798 53.76709365844727 3.947783708572388 C 58.282958984375 5.85781717300415 62.33771514892578 8.592561721801758 65.81871795654297 12.0760612487793 C 69.29982757568359 15.55968379974365 72.03162384033203 19.6164493560791 73.93822479248047 24.1336841583252 C 75.91197967529297 28.81003952026367 76.91063690185547 33.77891540527344 76.90644073486328 38.90228271484375 C 76.90223693847656 44.02831649780273 75.89437866210938 49.00133895874023 73.91085052490234 53.6832160949707 C 71.99472808837891 58.20599365234375 69.25339508056641 62.26891708374023 65.76296997070312 65.75912475585938 C 62.27256011962891 69.24933624267578 58.20939254760742 71.99052429199219 53.68635940551758 73.90654754638672 C 49.00419235229492 75.88996887207031 44.03086090087891 76.89777374267578 38.90451431274414 76.90196990966797 L 38.87271499633789 76.90198516845703 Z" stroke="none"/>
          <path d="M 39.00178909301758 1.968063354492188 L 38.9708137512207 1.96807861328125 C 33.97894287109375 1.97216796875 29.13657760620117 2.953323364257812 24.57822418212891 4.884300231933594 C 20.17416381835938 6.749908447265625 16.21767044067383 9.419219970703125 12.81862640380859 12.81806182861328 C 9.419601440429688 16.21689987182617 6.750152587890625 20.17315673828125 4.884437561035156 24.57693481445312 C 2.953369140625 29.13499450683594 1.97216796875 33.9770393371582 1.968070983886719 38.96858215332031 C 1.9639892578125 43.95738220214844 2.9361572265625 48.79514312744141 4.857589721679688 53.34751129150391 C 6.713798522949219 57.74539184570312 9.373626708984375 61.69516754150391 12.76316833496094 65.08713531494141 C 16.152587890625 68.47900390625 20.10041427612305 71.14170074462891 24.49696731567383 73.00126647949219 C 29.04769515991211 74.92604064941406 33.8843879699707 75.9019775390625 38.87270736694336 75.9019775390625 L 38.90370559692383 75.90196990966797 C 43.89557647705078 75.89788818359375 48.73794174194336 74.91672515869141 53.29629516601562 72.98574829101562 C 57.70035552978516 71.12013244628906 61.65684509277344 68.45083618164062 65.05588531494141 65.05199432373047 C 68.45491790771484 61.65316009521484 71.12436676025391 57.6968994140625 72.99007415771484 53.29312133789062 C 74.921142578125 48.73506164550781 75.90235137939453 43.89301681518555 75.90643310546875 38.90147399902344 C 75.91051483154297 33.91267395019531 74.93833923339844 29.07490921020508 73.01692199707031 24.52253341674805 C 71.16069793701172 20.12466430664062 68.50086975097656 16.17488861083984 65.11134338378906 12.78291320800781 C 61.72190856933594 9.39105224609375 57.77408599853516 6.728347778320312 53.37753295898438 4.868782043457031 C 48.82680130004883 2.944007873535156 43.99010848999023 1.968063354492188 39.00178909301758 1.968063354492188 M 39.00178527832031 -0.0319366455078125 C 60.50936508178711 -0.0319366455078125 77.92404937744141 17.39276123046875 77.90643310546875 38.90311050415039 C 77.88880920410156 60.42395782470703 60.42742156982422 77.88434600830078 38.90534210205078 77.90196990966797 C 17.38322448730469 77.91960144042969 -0.049560546875 60.4878044128418 -0.03192901611328125 38.96694564819336 C -0.01428985595703125 17.44609832763672 17.44709396362305 -0.01428985595703125 38.96917724609375 -0.03192138671875 C 38.97968673706055 -0.0319366455078125 38.99127960205078 -0.0319366455078125 39.00178527832031 -0.0319366455078125 Z" stroke="none" fill="#e67e22"/>
        </g>
      </g>
    </g>
    <path id="Icon_akar-heart" data-name="Icon akar-heart" d="M8.021,4.5A5,5,0,0,0,3,9.47c0,2.216.879,7.476,9.527,12.792a.989.989,0,0,0,1.028,0C22.2,16.946,23.082,11.686,23.082,9.47A5,5,0,0,0,18.062,4.5c-2.772,0-5.021,3.012-5.021,3.012S10.793,4.5,8.021,4.5Z" transform="translate(1720.017 3154.086)" fill="#fff" stroke="#fff" stroke-linecap="round" stroke-linejoin="round" stroke-width="3"/>
  </g>
</svg>
