<svg xmlns="http://www.w3.org/2000/svg" width="209.799" height="206.05" viewBox="0 0 209.799 206.05">
  <g id="Group_538" data-name="Group 538" transform="translate(-581.14 -5319.975)">
    <g id="Group_81" data-name="Group 81" transform="translate(-0.589 2386.024)">
      <path id="Path_665" data-name="Path 665" d="M267.632,199.649c26.427-3.906,54.538,3.811,72.4,23.673,19.044,21.174,25.92,50.971,19.734,78.769-6.227,27.981-25.615,51.037-51.405,63.551-25.888,12.561-56.351,14.159-82.039,1.2-25.156-12.694-44.162-37.722-46.056-65.836-1.662-24.665,21.464-40.9,37.6-59.622,14.87-17.251,27.23-38.4,49.76-41.73" transform="matrix(0.985, 0.174, -0.174, 0.985, 469.547, 2707.013)" fill="#fbf3e8"/>
      <g id="Group_80" data-name="Group 80" transform="translate(0 13.428)">
        <text id="Women_Empowerment" data-name="Women
Empowerment" transform="translate(687 3038.25)" fill="#242424" font-size="21" font-family="HelveticaNeue, Helvetica Neue"><tspan x="-35" y="0">Women</tspan><tspan x="-68" y="25">Empowerment</tspan></text>
      </g>
    </g>
    <path id="f5f07752534b2a9db64563178eabe91f" d="M55.357,18.094a3,3,0,0,0-2.718,4.315l-2.666,2.666L46.047,16.51a3.027,3.027,0,1,0-3.737-.175l-3.761,6.018-6-11.078a4.027,4.027,0,1,0-4.72,0l-6,11.078-3.761-6.018a3.015,3.015,0,1,0-3.737.173L10.4,25.073,7.738,22.409A3.019,3.019,0,1,0,4.73,24.1l5.281,21.131L8.091,51a1,1,0,0,0,.956,1.325H51.33A1.008,1.008,0,0,0,52.284,51l-1.921-5.763L55.645,24.1a3.012,3.012,0,0,0-.288-6.01ZM44.283,13.061a1,1,0,1,1,.334,1.945,1.151,1.151,0,0,0-.117,0l-.217.064a1.907,1.907,0,0,1-.276-.07c-.02-.006-.04.008-.062,0a1,1,0,0,1,.338-1.945Zm-.135,4.132,4.309,9.4L43.52,31.53l-3.87-7.144,4.5-7.194ZM30.189,6.013a2.013,2.013,0,1,1-2.013,2.013A2.013,2.013,0,0,1,30.189,6.013ZM16.094,13.061a.995.995,0,1,1,.266,1.959c-.014,0-.03,0-.044,0l-.1.03a1.105,1.105,0,0,1-.123.024.993.993,0,0,1-.217-.044v-.018a.755.755,0,0,0-.117,0,1,1,0,0,1,.334-1.947Zm.135,4.132,4.5,7.194L16.859,31.53l-4.937-4.937,4.307-9.4Zm-10.5,4.637a1.057,1.057,0,0,1-.473.228c-.024.006-.04.022-.064.03a.932.932,0,0,1-.169.034,1,1,0,1,1,.707-.292ZM10.442,50.31l1.343-4.027H48.592l1.343,4.027Zm38.087-6.04H11.848L6.879,24.4l9.512,9.512a1.011,1.011,0,0,0,.366.228,1.164,1.164,0,0,0,.121.024,1.021,1.021,0,0,0,.223.042,1.007,1.007,0,0,0,.884-.528l4.792-8.845v0L29.713,12.02c.054.008.109,0,.163,0,.1.01.205.034.312.034s.207-.024.31-.032c.054,0,.109.008.163,0L37.6,24.827v0l4.792,8.845a1.011,1.011,0,0,0,.739.517c.05,0,.1.008.147.008a.9.9,0,0,0,.219-.044,1.282,1.282,0,0,0,.127-.024,1,1,0,0,0,.364-.226L53.5,24.4,48.529,44.269Zm6.828-22.148a.991.991,0,0,1-.171-.034.631.631,0,0,0-.064-.03,1.057,1.057,0,0,1-.473-.228,1.007,1.007,0,1,1,.709.292ZM30.189,30.175a5.034,5.034,0,1,0,5.034,5.034A5.038,5.038,0,0,0,30.189,30.175Zm0,8.054a3.02,3.02,0,1,1,3.02-3.02A3.024,3.024,0,0,1,30.189,38.229Z" transform="translate(657.706 5360.677)" fill="#e67e22"/>
  </g>
</svg>
